<svg version="1.2" xmlns="http://www.w3.org/2000/svg" viewBox="0 0 3000 3000" width="3000" height="3000">
	<title>horseshoe-svg</title>
	<style>
		.s0 { fill: #ffffff } 
	</style>
	<path id="Layer" fill-rule="evenodd" class="s0" d="m2941.5 1456.7c0 799.4-678 1470.4-1441.2 1470.4-763.3 0-1441.3-671-1441.3-1470.4 0-690 263.5-1384.7 560.4-1384.7 3.3 0 171.5 6.4 171.5 135.6 0 182.1-279.8 544.1-279.8 1044 0 92.4 42.2 1161.6 989.2 1161.6 947 0 989.1-1069.2 989.1-1161.6 0-499.8-279.8-861.9-279.8-1044 0-129.2 168.3-135.6 171.5-135.6 296.9 0 560.4 694.7 560.4 1384.7zm-2665.1-308.1c0 26 20.2 48.1 46.4 50.1 29.5 1.7 51.9-20.3 53.7-46.6 7.2-102.8 7.1-100.2 7.1-102.9 0-25.9-20.1-48-46.3-50-30-1.7-52 20.6-53.8 46.5-7.2 102.8-7.1 100.3-7.1 102.9zm60.6-149.5q-0.1 0-0.2 0zm-0.2 0l-3.2-0.2c1 0.1 2.1 0.1 3.2 0.2zm1.4 0.1c3.5 0.3 6.7 0.5 6.7 0.5 0 0-3.5-0.3-6.7-0.5zm-19.8 199.2c1.2 0 2.6 0.1 3.9 0.2-1.4-0.1-2.8-0.2-3.9-0.2zm-1-0.1q0.5 0 1 0.1-0.5-0.1-1-0.1zm53.3 377c0-4.8 0.4-0.1-13.9-102.6-3.5-24.5-25.5-45-55.6-41.5-14.4 3.2-41.4 14.4-41.4 48.3 0 4.8-0.4 0.1 13.9 102.6 3.6 25.2 26.4 44.7 54.1 41.7 13.6-2.6 42.9-12.2 42.9-48.5zm-76.6-143.1c0 0 3.4-0.4 7-0.9-3.8 0.4-7.1 0.9-7 0.9zm33.3 191.7c-2.8 0.4-5.3 0.7-6.1 0.8 0.7-0.1 2.9-0.3 6.1-0.8zm6.2-0.9c-1.4 0.2-3.1 0.4-4.9 0.7 1.9-0.2 3.6-0.5 4.9-0.7zm-32.3-191.8c3.9-0.5 8.1-1.1 8.1-1.1-1.3 0-4.3 0.3-8.1 1.1zm158.4 610.8c27.8 0 50.1-22.8 50.1-50.4 0-12.7 0.1-9.4-40.9-111.2-9.3-23.1-35.3-37.9-64.5-28.1 3.2-1.3 6.5-2.7 6.5-2.7-3 0.8-13.3 5.3-14.7 6 0 0 2.9-1.2 5.5-2.2-11.5 5.8-29.5 19.1-29.5 46 0 12.7-0.2 9.3 40.9 111.1 7.9 19.6 26.8 31.5 46.7 31.5zm302.3 382.8c7-7 16.3-19.5 16.3-38.5 0-26-8.6-30.1-84.2-114.2-17.3-19.3-47.5-24.5-72.6-6.2 0.7-0.6 1.3-1.1 1.8-1.6-0.7 0.6-1.6 1.3-2.6 2.3-5.2 3.9-8 7.3-8 7.3 0 0 2.4-2.2 5-4.6-6.9 7.1-16.2 19.6-16.2 38.5 0 26.1 8.6 30.1 84.1 114.2 17.4 19.4 47.6 24.6 72.7 6.2-0.7 0.6-1.3 1.2-1.9 1.7q1.1-0.9 2.7-2.3c5.2-3.9 8-7.3 7.9-7.3 0 0-2.3 2.1-5 4.5zm1636.9-117c0-18.9-9.2-31.4-16.2-38.5 2.7 2.4 5 4.6 5 4.6 0.1 0-2.8-3.4-7.9-7.3q-1.6-1.4-2.7-2.3 0.8 0.7 1.8 1.6c-25.2-18.4-55.3-13-72.6 6.2-75.5 84.1-84.2 88.1-84.2 114.2 0 19 9.3 31.5 16.3 38.5-2.7-2.4-5-4.5-5-4.5-0.1 0 2.7 3.4 7.9 7.3q1.6 1.4 2.7 2.3c-0.6-0.5-1.2-1.1-1.9-1.7 25.3 18.5 55.4 13.1 72.7-6.2 75.5-84.1 84.1-88.1 84.1-114.2zm265.3-1308.7q0.1 0 0.1 0-0.3 0-0.7 0zm-47.3 50.1c0 2.7-0.1 0.1 7 102.9 1.9 26.4 24 46.7 50 46.7q2.4 0 4.7-0.2c1.6-0.1 3.2-0.2 4.5-0.3-1.2 0.1-2.7 0.2-4.4 0.3 25.5-2.4 45.4-24.2 45.4-50 0-2.6 0.1-0.1-7.1-102.8-1.8-26.4-24-46.8-50-46.8q-1.4 0-2.7 0.1 1.4-0.1 2.6-0.2l-2.7 0.2c-26.3 1.5-47.3 23.6-47.3 50.1zm46.7-50.1l-0.1 0.1q0.1 0 0.1-0.1zm-8 0.6c0 0 3.2-0.2 6.7-0.5-3.2 0.2-6.7 0.5-6.7 0.5zm17.1 624.1c27.8 3 50.6-16.5 54.1-41.7 14.4-102.5 13.9-97.7 13.9-102.6 0-33.9-27-45-41.4-48.2-30.2-3.6-52.1 17-55.5 41.4-14.4 102.5-13.9 97.8-13.9 102.6 0 36.3 29.2 45.9 42.8 48.5zm18.4-193.7c0 0 4.1 0.6 8.1 1.2-3.8-0.9-6.8-1.2-8.1-1.2zm-12.4-231.5q0 0-0.1 0-0.2 0-0.4 0 0.3 0 0.5 0zm-91.3 812c41-101.9 40.9-98.5 40.9-111.2 0-26.9-18-40.2-29.5-46 2.6 1 5.5 2.2 5.5 2.2-1.4-0.7-11.7-5.1-14.8-5.9 0 0 3.3 1.3 6.5 2.6-29.9-10.1-55.3 5.7-64.4 28.1-41 101.9-40.9 98.5-40.9 111.2 0 27.7 22.3 50.4 50 50.4 19.9 0 38.8-11.9 46.7-31.4zm84.4-386.9c-1.8-0.2-3.5-0.5-4.9-0.7 1.3 0.2 3 0.5 4.9 0.7zm7.4 1c-0.8-0.1-3.3-0.4-6.1-0.8 3.2 0.6 5.4 0.8 6.1 0.8zm20.2-193.4c3.6 0.5 7 1 7 1 0.1 0-3.2-0.6-7-1z"/>
</svg>