<svg xmlns="http://www.w3.org/2000/svg" width="2711" height="316" viewBox="0 0 2711 316" fill="none">
    <path
        d="M253.757 1.375C253.404 1.375 235.017 2.0759 235.017 16.1928C235.017 36.0925 265.59 75.6585 265.59 130.281C265.59 140.38 260.988 257.219 157.5 257.219C54.012 257.219 49.4098 140.38 49.4098 130.28C49.4098 75.6574 79.9827 36.0915 79.9827 16.1917C79.9827 2.0759 61.5962 1.375 61.2434 1.375C28.7952 1.375 0 77.2865 0 152.699C0 240.052 74.088 313.375 157.5 313.375C240.912 313.375 315 240.052 315 152.699C315 77.2865 286.205 1.375 253.757 1.375ZM31.2406 102.753C31.2406 102.753 30.8889 102.729 30.5025 102.702C30.8563 102.723 31.2406 102.751 31.2406 102.753ZM30.3744 102.692C30.2463 102.683 30.1192 102.675 30.0027 102.666L30.3744 102.692ZM24.529 107.785C24.7275 104.946 27.1341 102.51 30.4174 102.697C33.2724 102.92 35.469 105.333 35.469 108.167C35.469 108.454 35.4816 108.176 34.6983 119.408C34.4977 122.281 32.0481 124.686 28.8288 124.498C25.9644 124.284 23.7583 121.866 23.7583 119.026C23.7583 118.738 23.7457 119.016 24.529 107.785ZM28.7689 124.494C28.582 124.482 28.3867 124.468 28.2376 124.457C28.3815 124.468 28.5726 124.48 28.7689 124.494ZM27.3598 149.787C27.3598 149.787 26.9062 149.851 26.4705 149.912C26.8936 149.819 27.2191 149.787 27.3598 149.787ZM26.4484 149.916C26.0568 149.97 25.6872 150.023 25.6872 150.023C25.6756 150.023 26.0389 149.964 26.4484 149.916ZM28.6618 171.056C28.7448 171.045 29.0209 171.006 29.3254 170.962C28.9789 171.027 28.7353 171.048 28.6618 171.056ZM29.4714 170.943C29.6625 170.915 29.8536 170.889 30.0048 170.868C29.8589 170.891 29.6719 170.919 29.4714 170.943ZM34.0536 165.658C34.0536 169.62 30.8532 170.67 29.3727 170.953C26.3403 171.285 23.8465 169.148 23.4622 166.401C21.8914 155.201 21.9418 155.715 21.9418 155.188C21.9418 151.481 24.8871 150.263 26.4652 149.914C29.7475 149.529 32.1573 151.763 32.5342 154.445C34.105 165.646 34.0546 165.131 34.0546 165.658H34.0536ZM43.7902 216.654C41.6188 216.654 39.5514 215.354 38.6914 213.219C34.2058 202.092 34.2216 202.46 34.2216 201.073C34.2216 198.138 36.1914 196.678 37.444 196.045C37.1626 196.159 36.8413 196.289 36.8413 196.289C37.003 196.207 38.1276 195.724 38.4552 195.636C38.4552 195.636 38.0961 195.781 37.7464 195.923C40.9279 194.851 43.7682 196.476 44.7856 199C49.2712 210.127 49.2555 209.76 49.2555 211.147C49.2555 214.171 46.8184 216.655 43.7892 216.655L43.7902 216.654ZM77.3808 258C77.3892 258 77.0794 258.368 76.5145 258.797C76.4011 258.898 76.3024 258.98 76.2226 259.046C76.2814 258.992 76.3508 258.931 76.4232 258.865C73.6838 260.87 70.3846 260.302 68.4862 258.188C60.2301 248.999 59.2883 248.558 59.2883 245.71C59.2883 243.641 60.3036 242.268 61.0659 241.5C60.775 241.764 60.5178 241.995 60.5178 241.995C60.5094 241.995 60.8191 241.627 61.384 241.198C61.4964 241.097 61.5961 241.015 61.6759 240.949C61.6171 241.003 61.5478 241.064 61.4754 241.13C64.2148 239.125 67.5139 239.694 69.4123 241.807C77.6685 250.996 78.6103 251.437 78.6103 254.285C78.6103 256.354 77.595 257.727 76.8327 258.495C77.1235 258.231 77.3808 258 77.3808 258ZM246.517 258.188C244.628 260.291 241.336 260.882 238.58 258.865C238.653 258.931 238.722 258.993 238.781 259.046C238.7 258.98 238.601 258.898 238.489 258.797C237.923 258.368 237.613 258 237.622 258C237.622 258 237.879 258.231 238.17 258.495C237.408 257.727 236.393 256.354 236.393 254.285C236.393 251.436 237.336 250.996 245.591 241.807C247.48 239.704 250.771 239.113 253.528 241.13C253.454 241.064 253.386 241.002 253.327 240.949C253.408 241.015 253.507 241.097 253.619 241.198C254.185 241.627 254.495 241.995 254.485 241.995C254.485 241.995 254.229 241.764 253.937 241.5C254.7 242.268 255.715 243.641 255.715 245.71C255.715 248.559 254.772 248.999 246.517 258.188ZM284.998 102.666C284.882 102.675 284.755 102.683 284.627 102.692L284.998 102.666ZM284.497 102.701C284.111 102.728 283.759 102.752 283.759 102.752C283.759 102.75 284.144 102.722 284.497 102.701ZM279.533 108.166C279.533 105.159 281.988 102.678 285.011 102.678C287.853 102.678 290.271 104.901 290.473 107.784C291.256 119.015 291.244 118.736 291.244 119.025C291.244 122.018 288.802 124.513 285.766 124.513C282.924 124.513 280.505 122.289 280.304 119.407C279.52 108.175 279.533 108.454 279.533 108.166ZM289.316 150.022C289.316 150.022 288.946 149.97 288.555 149.915C288.964 149.963 289.327 150.022 289.316 150.022ZM288.532 149.911C288.097 149.85 287.642 149.786 287.642 149.786C287.783 149.786 288.108 149.818 288.532 149.911ZM286.764 124.455C286.615 124.467 286.42 124.48 286.233 124.492C286.431 124.478 286.621 124.464 286.764 124.455ZM276.311 213.218C275.451 215.352 273.383 216.653 271.212 216.653C268.183 216.653 265.746 214.169 265.746 211.145C265.746 209.758 265.73 210.125 270.215 198.998C271.206 196.543 273.987 194.82 277.255 195.921C276.906 195.78 276.546 195.634 276.546 195.634C276.877 195.723 278 196.206 278.16 196.287C278.16 196.287 277.839 196.158 277.557 196.043C278.81 196.676 280.779 198.135 280.779 201.071C280.779 202.458 280.795 202.09 276.31 213.217L276.311 213.218ZM284.997 170.866C285.148 170.887 285.34 170.914 285.531 170.94C285.329 170.916 285.143 170.888 284.997 170.866ZM285.678 170.961C285.982 171.005 286.258 171.044 286.341 171.055C286.268 171.048 286.024 171.026 285.678 170.961ZM285.63 170.952C284.15 170.669 280.95 169.618 280.95 165.657C280.95 165.129 280.899 165.645 282.47 154.444C282.845 151.772 285.241 149.526 288.539 149.912C290.117 150.263 293.062 151.479 293.062 155.187C293.062 155.715 293.113 155.2 291.542 166.4C291.157 169.145 288.665 171.283 285.631 170.952H285.63Z"
        fill="white"></path>
</svg>